<?xml version="1.0" encoding="UTF-8"?>
<svg id="Capa_1" data-name="Capa 1" xmlns="http://www.w3.org/2000/svg" version="1.1" xmlns:xlink="http://www.w3.org/1999/xlink" viewBox="0 0 1984.2 1984.2">
  <defs>
    <style>
      .cls-1 {
        fill: #231f20;
        fill-rule: evenodd;
      }

      .cls-1, .cls-2, .cls-3, .cls-4 {
        stroke-width: 0px;
      }

      .cls-2 {
        fill: #fff;
      }

      .cls-3 {
        fill: url(#Degradado_sin_nombre);
      }

      .cls-4 {
        fill: url(#Degradado_sin_nombre_2);
      }
    </style>
    <linearGradient id="Degradado_sin_nombre" data-name="Degradado sin nombre" x1="725.7" y1="859.4" x2="1094.7" y2="1386.5" gradientTransform="translate(0 1984) scale(1 -1)" gradientUnits="userSpaceOnUse">
      <stop offset="0" stop-color="#e6007e"/>
      <stop offset="1" stop-color="#ffde00"/>
    </linearGradient>
    <linearGradient id="Degradado_sin_nombre_2" data-name="Degradado sin nombre 2" x1="419.1" y1="534.2" x2="1532.8" y2="534.2" gradientTransform="translate(0 1984) scale(1 -1)" gradientUnits="userSpaceOnUse">
      <stop offset="0" stop-color="#2e4292"/>
      <stop offset=".9" stop-color="#359cd6"/>
    </linearGradient>
  </defs>
  <path class="cls-3" d="M1498.1,656.5c-4.3,1.1-10.4,3.2-16.4,5.3-11.6,3.9-22.5,7.6-31.4,8.9-3.1.5-6.7.7-11.2.7-10.7,0-27.3-1.2-49.3-3.7-.2,0-.6,0-1.3,0-3.3,0-8.1.8-12.6,1.6-5,.9-10.1,1.8-15.3,2-7.3.3-11.2.4-13.5.4s-5.8-.4-8.3-1.1c-15.8-2.7-22.9-14.4-24.3-23.8-1.7-12,4.9-23.9,16-28.8.6-.3,5.1-2,13.5-5.3,1.2-.5,2.3-.9,3.3-1.3,2.4-1.7,4.7-3,6.7-3.9,4.3-2,8.9-3.2,13.5-4.3.8-.2,1.8-.5,2.7-.7.9-.6,1.8-1.3,2.9-2,.2-1.4.5-2.8.9-4.2-.7-1.8-1.3-3.6-1.7-5.5-1-2.1-1.7-4.1-2.2-6-1.2-2.3-2.1-4.6-2.6-6.7-.5-1-.9-2-1.3-3.1-1.6-2.7-2.8-5.7-3.5-8.9-1.1-2.3-1.8-4.4-2.3-6.1-.2-.6-.3-1.2-.4-1.8-.4-1-.7-2-1-3.1-.7-1.3-1.2-2.7-1.7-4.2-.7-2.2-1.1-4.2-1.3-6-1.4-2.8-2.3-5.3-2.8-7.6-.6-1.1-1.2-2.3-1.7-3.6-1.2-1.7-2.3-3.6-3.2-5.6-1.1-1.4-2-2.8-2.8-4.2-1.4-.9-2.8-1.9-3.9-2.9-5.5-3.6-12.5-10.5-13.9-12l-1.1-1.1c-1-1-2.5-2.5-4.1-4.6-4.6-3-7.9-6.3-10.1-9.6-5.4-4.4-7.8-7.6-9.7-11.2l-.2-.3s0,0,0-.1c-.4-.4-.8-.8-1.2-1.1-2.9-2.2-5.2-4.9-7-7.9-2.5-2.4-3.8-4.3-4.6-5.5-.8-1-1.5-2-2.1-3.1-.8-.8-1.6-1.7-2.3-2.7-1.9-2.5-5.5-7.2-7.1-13.5-1.8-4-3-8.9-2.5-14.5.8-8.6,5.7-16.4,13-20.9,2.5-1.5,5.2-2.6,8-3.3-96.2-66.4-211.4-99.7-345.8-99.7H419.1v977.5l6.5,2c81.8,25.1,245.4,61.5,422.9,23.9,45.6-9.7,95.8-22.6,149-36.3,179.5-46.3,383-98.8,540.6-60.6h.6c17.7-68.4,26.5-143.1,26.5-224,0-127.3-21.9-239.3-65.6-336-.5.1-1,.3-1.4.4h0Z"/>
  <path class="cls-4" d="M1512.5,1233.3c-6.1-1.1-12.3-2.2-18.5-3.1-5.7-.8-11.4-1.5-17.2-2.1-5.3-.6-10.8-1-16.2-1.4-5.1-.4-10.3-.7-15.5-.9-4.9-.2-9.8-.4-14.8-.5-4.8,0-9.5-.2-14.3-.2s-9.3,0-13.9.2c-4.5,0-9,.2-13.5.4-4.4.2-8.8.4-13.2.6-4.3.2-8.6.5-12.9.8-4.2.3-8.5.6-12.7,1-4.2.4-8.3.7-12.5,1.2-4.1.4-8.2.8-12.3,1.3-4,.4-8.1.9-12.1,1.4-4,.5-7.9,1-11.9,1.5-3.9.5-7.8,1.1-11.8,1.6-3.9.6-7.8,1.1-11.7,1.7-3.8.6-7.7,1.2-11.5,1.8-3.8.6-7.6,1.2-11.4,1.9-3.8.6-7.5,1.3-11.3,2-3.7.7-7.5,1.3-11.2,2-3.7.7-7.4,1.4-11.1,2.1-3.7.7-7.4,1.4-11.1,2.2-3.7.7-7.3,1.5-11,2.2-3.6.7-7.3,1.5-10.9,2.3-3.6.8-7.2,1.5-10.8,2.3-3.6.8-7.2,1.6-10.8,2.3-3.6.8-7.2,1.6-10.7,2.4-3.6.8-7.1,1.6-10.7,2.4-3.5.8-7.1,1.6-10.6,2.5-3.5.8-7.1,1.7-10.6,2.5-3.5.8-7,1.7-10.5,2.5-3.5.8-7,1.7-10.5,2.5-3.5.8-7,1.7-10.5,2.6s-7,1.7-10.4,2.6-6.9,1.7-10.4,2.6c-3.5.9-6.9,1.7-10.4,2.6s-6.9,1.8-10.4,2.6c-3.5.9-6.9,1.8-10.3,2.6-3.5.9-6.9,1.8-10.3,2.7-3.4.9-6.9,1.8-10.3,2.7-3.5.9-6.9,1.8-10.3,2.7-3.5.9-6.9,1.8-10.3,2.7-3.5.9-6.9,1.8-10.3,2.7-3.5.9-6.9,1.8-10.3,2.7-3.5.9-6.9,1.8-10.3,2.7-3.5.9-6.9,1.8-10.3,2.6-3.5.9-6.9,1.8-10.4,2.6-3.5.9-6.9,1.8-10.4,2.6-3.5.9-7,1.7-10.4,2.6-3.5.9-7,1.7-10.5,2.6-3.5.9-7,1.7-10.5,2.6-3.5.8-7,1.7-10.5,2.5-3.5.8-7.1,1.7-10.6,2.5-3.6.8-7.1,1.6-10.7,2.4-3.6.8-7.2,1.6-10.7,2.4-3.3.7-6.6,1.4-9.9,2.1-.3,0-.6.1-.9.2-3.7.8-7.3,1.5-11,2.2-3.7.7-7.4,1.4-11.1,2.1-3.8.7-7.6,1.3-11.3,1.9-3.9.6-7.7,1.2-11.6,1.8-3.9.6-7.8,1.1-11.8,1.7-4,.5-8,1-12,1.5-4.1.5-8.2.9-12.2,1.3-4.2.4-8.3.8-12.5,1.2-4.2.4-8.5.7-12.7,1-4.3.3-8.7.6-13,.8-4.5.2-8.9.4-13.3.6-4.5.2-9.1.3-13.6.4-4.7,0-9.3.2-13.9.2-4.8,0-9.5,0-14.2,0-4.9,0-9.8-.2-14.6-.3-5-.2-10-.3-15-.6-5.2-.2-10.3-.5-15.3-.9-5.3-.3-10.6-.7-15.8-1.2-5.5-.4-10.9-.9-16.3-1.5-5.7-.6-11.2-1.2-16.8-1.8-5.8-.7-11.6-1.4-17.3-2.2-6.1-.8-12-1.7-17.9-2.7-6.3-1-12.5-2-18.6-3.1-6.6-1.2-13-2.4-19.4-3.7-6.9-1.4-13.7-2.8-20.2-4.3-7.3-1.6-14.4-3.3-21.2-5-7.8-1.9-15.3-3.9-22.4-5.8-8.4-2.3-16.4-4.6-23.9-6.9-1.4-.4-2.8-.8-4.2-1.3v354.4l14.1,9.9h517.6c1.7,0,3.4,0,5.2,0,4.6,0,9.2,0,13.8-.2,4.5-.1,9-.2,13.5-.4,4.4-.2,8.8-.4,13.2-.7,4.3-.2,8.6-.5,12.9-.9,4.2-.3,8.4-.7,12.6-1.1,4.1-.4,8.2-.8,12.3-1.3,4-.4,8-.9,12-1.5,3.9-.5,7.9-1.1,11.8-1.6,3.9-.6,7.7-1.2,11.5-1.8,3.8-.6,7.6-1.3,11.3-2,3.7-.7,7.4-1.4,11.1-2.2,3.6-.7,7.2-1.5,10.8-2.3,3.6-.8,7.1-1.6,10.6-2.5,3.5-.8,6.9-1.7,10.4-2.6,3.4-.9,6.8-1.8,10.2-2.8,3.3-.9,6.7-1.9,10-2.9,3.3-1,6.5-2,9.8-3,3.2-1,6.4-2.1,9.6-3.2,3.2-1.1,6.3-2.2,9.4-3.3,3.1-1.1,6.2-2.3,9.2-3.4,3-1.2,6.1-2.3,9.1-3.5,3-1.2,6-2.4,8.9-3.7,2.9-1.2,5.8-2.5,8.7-3.8,2.9-1.3,5.7-2.6,8.6-3.9,2.8-1.3,5.6-2.6,8.4-4,2.8-1.3,5.5-2.7,8.3-4.1,2.7-1.4,5.4-2.8,8.1-4.2,2.7-1.4,5.3-2.8,8-4.3,2.6-1.4,5.2-2.9,7.8-4.4,2.6-1.5,5.2-3,7.7-4.5,2.5-1.5,5.1-3,7.6-4.6,2.5-1.5,5-3.1,7.4-4.7,2.4-1.6,4.9-3.2,7.3-4.8,2.4-1.6,4.8-3.2,7.2-4.9,2.4-1.6,4.7-3.3,7.1-4.9,2.3-1.7,4.7-3.3,6.9-5,2.3-1.7,4.6-3.4,6.8-5.1,2.2-1.7,4.5-3.4,6.7-5.2,2.2-1.7,4.4-3.5,6.6-5.3,2.2-1.8,4.3-3.6,6.5-5.3,2.1-1.8,4.3-3.6,6.4-5.4,2.1-1.8,4.2-3.6,6.3-5.5,2.1-1.8,4.1-3.7,6.2-5.6,2-1.9,4.1-3.7,6.1-5.6,2-1.9,4-3.8,6-5.7,2-1.9,3.9-3.8,5.9-5.8,1.9-1.9,3.9-3.9,5.8-5.8,1.9-1.9,3.8-3.9,5.7-5.9,1.9-2,3.7-4,5.6-6,1.8-2,3.7-4,5.5-6,.4-.4.7-.8,1.1-1.2,1.4-1.6,2.9-3.3,4.3-4.9,1.8-2,3.6-4.1,5.3-6.2s3.5-4.1,5.2-6.2,3.4-4.2,5.2-6.3,3.4-4.2,5.1-6.3,3.3-4.3,5-6.4,3.3-4.3,4.9-6.5c1.6-2.2,3.2-4.3,4.8-6.5,1.6-2.2,3.2-4.4,4.7-6.6,1.6-2.2,3.1-4.4,4.6-6.7s3-4.5,4.5-6.7c1.5-2.2,3-4.5,4.4-6.8s2.9-4.6,4.4-6.8c1.4-2.3,2.9-4.6,4.3-6.9,1.4-2.3,2.8-4.6,4.2-7,1.4-2.3,2.8-4.7,4.1-7s2.7-4.7,4-7.1,2.6-4.8,3.9-7.1,2.6-4.8,3.8-7.2,2.5-4.8,3.8-7.3c1.2-2.4,2.5-4.9,3.7-7.3,1.2-2.4,2.4-4.9,3.6-7.4s2.3-5,3.5-7.4,2.3-5,3.4-7.5c1.1-2.5,2.2-5,3.3-7.6,1.1-2.5,2.2-5.1,3.2-7.6s2.1-5.1,3.1-7.7,2-5.2,3-7.8,2-5.2,3-7.8,1.9-5.2,2.9-7.9,1.9-5.3,2.8-7.9c.9-2.7,1.8-5.3,2.7-8,.9-2.7,1.8-5.4,2.6-8.1.8-2.7,1.7-5.4,2.5-8.1.8-2.7,1.6-5.4,2.4-8.2-6.7-1.6-13.5-3.1-20.3-4.3h0Z"/>
  <path class="cls-1" d="M1360.9,984.6c-.2.2-.8.6-.6,1.1.4,1,3,1.8,4.1,1.9,0,0-2.8,1.5-6.4,3.2s-4.9,2.7-6.2,3.8c-1.3,1-7.2,1.9-9.4,3s-1,1.1-2.1,1.5c-1.1.5-10.2,3.9-10.4,4-.2,0,0,.4,1.1.5,1.1.2,1.7-.2,2-.3.3,0-.8.5-.9.5s2.5,0,7.1-.2c4.6-.2,11.6-2.4,17.4-1.8,5.8.7,22.5,2.4,28.1,1.6s16.7-5.3,23.4-7.1c6.7-1.8,14.1-5.2,15.9-5.1,1.9,0,6.7,1.1,7.8,1.8,1,.7.7,1.2.7,1.2,0,0,.5-.6.6-1.6,0-1-.3-1.5-1.1-2.1-.8-.6-1.1-.3-2-.5-.9-.3-3.3-1-3.3-1,0,0-.2-.2-.3-.7,0-.4-.8-.5-1.3-1-.5-.5-.5-1.3-.8-2.3-.3-1-2-2.5-6.3-4.3-4.3-1.8-10.7-2-10.7-2,0,0,.5-3.7,4.4-7.7,3.9-4,15.6-10.2,16.9-11.5s-3.9-.4-14,2.6c-10.1,3-23.4,9.7-23.4,9.7,0,0-2.8-1.9-7.2-12.8-4.4-10.9-5.3-21.6-6.7-24.6-1.4-3-14.9-14.2-17.3-17.1-2.4-2.9-5.6-4.3-18.1-12.2-12.5-8-31.4-11-32.1-10.7-.7.4,2,2.8,2,2.8,0,0-.9.1-1.1.2-.2,0,.2.7,1.1,1.8s3.2,2,3.2,2c0,0-.7,0-1.1.3-.4.2,0,.3.8,1.4s4.2,2.9,4.2,2.9c0,0-.6,0-1.1.4-.6.4,0,.1.7,1,.7.8,4.6,3.5,4.6,3.5,0,0-.5.2-.9.3-.4.1-.3.2.2,1.2.5,1,5.2,4,5.2,4,0,0-.8,0-.9.2-.2,0,0,.6,1.4,1.4,1.3.8,4.1,2.4,4.2,2.5,0,.1-.4.2-.7.4-.3.2,0,.5,1.4,1.9s4.3,4,4.8,4.2,1.6-.2,1.9-.3c.3,0-.2.6-.4,1s0,.6,1.5,1.3,2.8,1.7,3.3,2.5,0,1,.6,2c.5,1,1.1.8,1.6,1.1.4.4,0,.2.3,1.7s1.4,1.5,1.4,1.5c0,0,0,.5.5,2,.5,1.6.8.7,1,1.2.2.6.3.8.6,1.8.2,1-.2,1.2.6,2.3s.9,1.3,1.2,2.4c.3,1-.3,1.1.2,2.5.4,1.4.8.3.9.5s-.3.5,0,2.2.7.5.9,1-.4.7,0,1.8,1,.8,1.3,1.3c.3.5-.2.3,0,1.9s1.1,1.6,1.1,1.6c0,0,0,.2.2,1.4s1.3,1.8,1.3,2.1-.2.2-.2,1c0,.8,1.3,1.3,1.4,1.7.2.4-.2.5,0,1.7s1.3,1.6,1.4,1.9-.3.8-.1,2c.2,1.2,1.3,1.3,1.6,2,.2.7-.6.8-.3,2.1s1.2,1.8,1.2,1.8c0,0-1.3,2.7-1.4,3-.2.3-.5.6-.5,1.1,0,.5.7,1.3.5,1.5h0Z"/>
  <path class="cls-1" d="M1347.1,657.9c-2.1,0-3.8-.3-5.3-.8-11.4-1.7-13.4-9.9-13.8-12.4-.8-6,2.5-12,8.1-14.5.5-.2.6-.3,12.7-4.9,2.1-.8,4-1.5,5.4-2.1,1.8-1.6,3.8-2.6,5.6-3.5,3.1-1.5,7-2.4,11-3.5,1.6-.4,4.1-1,5.5-1.5,2.6-2,5.3-3.8,9.8-6.2,0-1,.1-1.9.4-2.9,0-.6,0-1.3,0-2,.1-3,1.1-5.3,1.9-6.9,0-.4-.2-.8-.3-1.2-.2-.8-.3-1.6-.3-2.3-.9-1.5-1.8-3.4-2.2-5.7,0-.5-.2-1-.2-1.5-1.2-2-2-4.1-2.4-6.4-1.2-1.7-2.2-3.8-2.6-6.4-.7-1.2-1.4-2.6-1.8-4.3-1.4-2.1-2.5-4.7-2.9-7.7-1.1-1.7-1.7-3.4-2.1-4.9-.2-.7-.3-1.4-.4-2.1-.5-1.1-.9-2.2-1.2-3.6,0-.2,0-.4-.1-.6-.6-1-1.1-2.2-1.6-3.6-.7-2.3-1-4.2-1-5.9l-.4-.6c-1.9-3.1-2.6-5.7-2.8-7.9-1-1.4-1.9-3.2-2.6-5.4-1.4-1.6-2.6-3.6-3.4-6-1.1-1.2-2.1-2.6-2.9-4.1-.5-.9-.8-1.8-1.1-2.6,0,0-.2,0-.3-.1-2.5-1.3-4.5-2.6-6-4,0,0,0,0,0,0-3.8-2-12.3-10.5-12.4-10.6l-1.2-1.2c-1.2-1.2-2.8-2.8-4-5-.7-.4-1.2-.8-1.7-1.1-1.6-1-5.5-3.4-7.7-7.7-6-4.5-7.1-6.6-7.9-8.3l-.3-.6c-.4-.7-.8-1.5-1-2.2-1.6-1.3-2.7-2.2-3.4-3-2.2-1.5-3.9-3.6-4.9-6-2.8-2.3-3.9-4-4.4-4.8-.2-.2-.3-.4-.4-.5-.8-1-1.5-2.1-2-3.1-.8-.8-1.7-1.6-2.4-2.6-1.9-2.5-4.4-5.7-4.9-9.8-1.4-2.5-2.2-5.4-1.9-8.6.4-4.4,2.8-8.3,6.6-10.6,2.2-1.4,4.8-2.1,7.7-2.1,7.6,0,43.6,7,68,22.5,6.8,4.3,12.2,7.6,16.4,10.3,11.4,7,16.6,10.2,21.3,15.9,1.2,1.5,7,6.7,11.1,10.5,14.9,13.6,21.2,19.7,23.8,25.1,1.7,3.6,2.6,8.1,4,14.9,1.8,8.8,4.3,20.8,9,32.7,2.2,5.4,4,9.4,5.6,12.3,9.5-4.4,23.9-10.6,36.2-14.3,22.3-6.7,27.7-6.7,29.7-6.7,9.5,0,13,6.6,13.9,8.7,2.2,5.3,1.1,11.2-3,15.5-2,2.1-4.6,3.7-11.6,8-4.3,2.6-10.4,6.4-15.1,9.7.7.3,1.5.5,2.2.8,11.6,4.9,17.5,9.8,19.7,16.4,0,0,0,0,0,0,.4.1.8.2,1.2.4,1.8.2,5.2.7,8.8,3.4,6.4,4.8,7.7,10.9,7.5,15.3-.2,6-3,10-4.2,11.4-2.7,3.2-6.5,4.8-10.4,4.8s-5.8-.9-8.3-2.8c-.6-.5-1.2-1-1.7-1.6-1.9-.4-4.1-.9-5.6-1.1-1.8.5-5.4,1.8-8.2,2.9-5.5,2-12.4,4.5-19.1,6.3-4.7,1.2-10.8,3.3-17.3,5.5-10.9,3.7-21.3,7.2-28.9,8.3-2.4.3-5.5.5-9.3.5-10.2,0-26.3-1.2-47.8-3.6-.8,0-1.8-.1-2.8-.1-4.5,0-9.8.9-14.9,1.8-4.7.8-9.2,1.6-13.5,1.8-7.1.3-10.9.4-12.9.4h0Z"/>
  <path class="cls-1" d="M541.5,565c0,11.2,3.8,20.5,4.4,24.6s-2.7,13.7-8.6,30.4-20.5,47.2-31.8,60.7c-11.3,13.5-16.6,20.2-17.6,18.2-1-2,1.1-6.8.9-7s-1.4.2-.7-2,1.8-4.5,1.8-4.5c0,0-1.1.5-1.1-1,0-1.5,3.3-10,3.3-10,0,0-1.9,1.7-1.7-.3s2.5-8.3,2.5-8.3c0,0-1.4,0-.2-3.8,1.2-3.7,2.5-7.1,2.5-7.1,0,0-1.3-.4-.5-2.3.8-1.9,2.4-5.3,2.8-6.5.5-1.2-1.2-.5.3-4.1,1.5-3.6,2.7-5.8,2.7-5.8,0,0-1,.7.3-2.8,1.3-3.5,2.4-4.8,2.4-6.4s-.8-.6.6-4c1.4-3.4,1.5-4.3,1.5-4.3,0,0,0-3.5.4-5.2.4-1.7-1-1.5-1-4.5s.6-2.7,0-3.7c-.6-1-1.3-.5-1.4-3.3-.2-2.8.2-4.3,0-4.8-.2-.5-1-.9-1.3-2.3-.3-1.4-.4-2-.4-2,0,0-1.1,0-1.1-2.4,0-2.5.3-3.8.2-4.2-.2-.4-1.5-2-.9-3.6s.6-1.3.4-2.7c-.1-1.3-.1-1.9,0-3.6s-.3-1.5,0-4.5.7-4.7.7-4.7c0,0,2.9-11.9,4-15.5s1-4.1,1-4.1c0,0-.6-.8-1-2.8-.4-2-.3-2.5-.6-2.7s-20.1-1.4-26.1-1.4-6.6-.2-12.9.7c-6.3.9-8.7.9-11.7,0s-1.3-3.4.3-4.3,1.9-.6,2.6-1.5,2.3-1.9,3.1-2.3c.8-.4,11.2-3.6,22.6-6.1,11.3-2.5,11.7-1.5,20-5.2s13-6.2,13-6.2c0,0-1,0-1.5-1.8-.5-1.8,2.4-3.9,2.2-4.7-.2-.8-1.4-.8,0-2.7s3.7-3.9,4.3-4.3,1.8-.8,1.1-1.5c-.7-.8-.1-.8.9-3.1,1-2.3,2.2-3.4,2.2-3.4,0,0-.5-2.6.2-3.9s1.4-2,1.4-2.8c0-.8.1-2,1.2-3.1s-.2-1,.6-2.8,1.1-2.1,1.3-2.5c.1-.5-.8-.4.5-2.3,1.4-2,1.8-2.7,1.8-2.7,0,0,.5-1.3,1.8-3,1.3-1.6,1.3-1.1,2.3-2.5s.2-1.1,2-2.7c1.9-1.6,2.5-2,3-2.6s2-3.3,3.8-4.8,1.9-1.1,3.1-2.4c1.2-1.2.6-.9,2-1.9s1.4-.7,2.3-1.6,2.2-2.4,2.2-2.4c0,0,2.5-2,2.6-2.3,0-.3-.7-1.1.8-2.8s3-2.2,3.4-3.5c.4-1.3-.2-.8.9-3s1.4-2.5,1.5-2.9c.2-.4.7-2.5,1.2-3.4s1.9-4.6,1.9-5c0-.4-.2-1.7.2-3.5s1-2.5,1-2.5c0,0,.6-6.2,1.7-8.2,1.2-2,1.5-1.9,1.5-1.9,0,0-.4-3.3,1-4.6s1.7-1.6,1.7-1.6c0,0,0-3.9,1.5-6s2-1.8,2-1.8c0,0,.3-3.6,1.5-4.9,1.2-1.3,1.9-1.8,1.9-1.8,0,0,.8-4.5,1.8-6.9s.7-2.9,2-2.6c1.3.3,9.3,8.6,12.2,22.3s3.3,21.6,2.5,26.3c-.9,4.6-2.7,3.8-3.8,11-1,7.1-2.8,13.5-4.4,15.5-1.6,2-9.2,7-17.6,17.3s-8.6,12.8-9.6,20.2-1.2,14.2,1,15.7c2.2,1.5,21.8,6.7,22.8,9.3,1,2.6-.2,5,.7,6.2s7.2,1.3,9.4,2.9c2.1,1.7,2.1,2.4,1.6,4s-1.4,2-1.3,1.8c0-.2,0-1.6-.7-2.1-.8-.5-8.4-1.6-11.4-1.2s-8.9,3.7-19.4,6.3-15.4,3.8-15.4,3.8c-5.7,10.4-8.9,13.8-9,25h0Z"/>
  <path class="cls-2" d="M666,887.7c0,.3,0,.6,0,.9,0,10.5,8.5,19,19,19.1v421.4c51.6.3,106.8-4.1,163.5-16.2,44.8-9.5,94.1-22.2,146.2-35.6v-301.7c0-41.9,34-75.9,75.9-75.9h0c41.9,0,75.9,34,75.9,75.9v264.1c25.3-5.8,50.7-11.2,76-15.9v-316.1c10.5,0,19-8.6,19-19.1s0-.6,0-.9c26.1-4.8,45.9-27.6,45.9-55.1s-25.1-56-56-56h-10.8c-15.4-125.3-117-223.9-243.6-234.7,14.8-8.1,24.8-23.8,24.8-41.9,0-26.4-21.4-47.8-47.8-47.8s-47.8,21.4-47.8,47.8,10,33.7,24.8,41.9c-126.7,10.8-228.3,109.4-243.6,234.7h-10.8c-31,0-56,25.1-56,56s19.8,50.3,45.9,55.1h0Z"/>
</svg>